<svg width="60" height="60" viewBox="0 0 60 60" class="test" fill="currentColor" xmlns="http://www.w3.org/2000/svg">
<g id="Home_fill">
<path id="Subtract" fill-rule="evenodd" clip-rule="evenodd" d="M13.1862 25.3154C12.5 26.8073 12.5 28.5045 12.5 31.8989V42.4998C12.5 47.2139 12.5 49.5709 13.9645 51.0354C15.4289 52.4998 17.786 52.4998 22.5 52.4998H22.75V40C22.75 38.067 24.317 36.5 26.25 36.5H33.75C35.683 36.5 37.25 38.067 37.25 40V52.4998H37.5C42.214 52.4998 44.5711 52.4998 46.0355 51.0354C47.5 49.5709 47.5 47.2139 47.5 42.4998V31.8989C47.5 28.5045 47.5 26.8073 46.8138 25.3154C46.1277 23.8236 44.8391 22.7191 42.2619 20.51L39.7619 18.3672C35.1036 14.3743 32.7744 12.3779 30 12.3779C27.2256 12.3779 24.8964 14.3743 20.2381 18.3672L17.7381 20.51C15.1609 22.7191 13.8723 23.8236 13.1862 25.3154ZM35.25 52.4998V40C35.25 39.1716 34.5784 38.5 33.75 38.5H26.25C25.4216 38.5 24.75 39.1716 24.75 40V52.4998H35.25Z" fill="currentColor"/>
</g>
</svg>
