<?xml version="1.0" standalone="no"?>
<!DOCTYPE svg PUBLIC "-//W3C//DTD SVG 20010904//EN"
 "http://www.w3.org/TR/2001/REC-SVG-20010904/DTD/svg10.dtd">
<svg version="1.0" xmlns="http://www.w3.org/2000/svg"
 width="500.000000pt" height="500.000000pt" viewBox="0 0 500.000000 500.000000"
 preserveAspectRatio="xMidYMid meet">

<g transform="translate(0.000000,500.000000) scale(0.100000,-0.100000)"
fill="#000000" stroke="none">
<path d="M2975 3982 c-17 -12 -57 -108 -53 -128 2 -15 16 -21 63 -28 33 -4 78
-9 99 -10 37 -1 41 -5 67 -56 34 -66 49 -130 49 -213 1 -34 5 -82 10 -107 11
-57 -6 -74 -62 -65 -54 10 -93 -2 -146 -43 -46 -36 -48 -37 -128 -34 -100 3
-148 -13 -198 -69 -33 -37 -38 -40 -73 -34 -112 20 -129 31 -97 66 14 15 13
24 -10 91 -14 41 -26 81 -26 90 0 8 -11 25 -25 38 -14 13 -25 31 -25 40 0 8
-27 42 -60 75 -57 56 -62 59 -118 63 -65 5 -114 -14 -175 -68 -27 -23 -37 -43
-47 -88 -11 -54 -10 -63 8 -105 11 -25 33 -53 49 -63 134 -82 173 -124 175
-184 1 -24 -9 -42 -43 -76 -41 -41 -46 -44 -99 -44 -69 0 -125 -25 -169 -75
-35 -40 -70 -108 -71 -135 0 -9 -20 -32 -44 -53 -26 -21 -49 -52 -56 -72 -6
-19 -15 -35 -18 -35 -12 1 -82 116 -92 151 -18 61 -13 118 13 139 129 112 139
125 127 151 -11 24 -88 69 -117 69 -11 0 -114 -173 -132 -223 -6 -16 -11 -45
-11 -65 -1 -20 -7 -72 -15 -115 -21 -118 -6 -249 39 -344 55 -114 101 -121
265 -40 90 44 118 64 186 133 92 93 77 95 150 -25 50 -84 58 -132 39 -246 -18
-104 -25 -131 -53 -202 l-21 -53 360 0 c198 0 360 2 360 5 0 3 -7 22 -15 41
-8 20 -20 66 -26 102 -6 37 -18 94 -26 127 -22 89 -19 160 10 225 14 30 35 91
47 135 12 44 31 98 42 119 11 22 26 76 34 120 8 45 19 92 26 104 15 29 69 57
128 67 118 19 196 71 334 222 l75 82 -15 62 c-21 89 -81 210 -156 314 -36 50
-70 100 -76 112 -11 20 -144 128 -189 151 -25 14 -53 15 -68 4z"/>
<path d="M1853 1736 c-26 -23 -28 -29 -28 -99 0 -66 3 -79 24 -101 33 -35 98
-36 130 -3 44 48 37 178 -12 212 -32 23 -82 19 -114 -9z m97 -42 c6 -14 10
-40 10 -59 0 -54 -16 -85 -44 -85 -32 0 -46 26 -46 85 0 59 14 85 46 85 17 0
27 -8 34 -26z"/>
<path d="M2077 1740 c-45 -35 -48 -169 -6 -211 19 -19 92 -27 115 -11 13 8 34
46 34 61 0 20 -47 12 -53 -9 -7 -27 -53 -27 -67 -1 -14 28 -13 114 3 135 17
23 49 17 62 -12 13 -29 55 -31 55 -2 0 59 -91 90 -143 50z"/>
<path d="M2260 1635 l0 -125 75 0 c68 0 75 2 75 20 0 17 -7 20 -50 20 l-50 0
0 35 c0 34 1 35 40 35 33 0 40 3 40 20 0 17 -7 20 -40 20 -38 0 -40 2 -40 30
0 29 1 30 50 30 43 0 50 3 50 20 0 18 -7 20 -75 20 l-75 0 0 -125z"/>
<path d="M2491 1723 c-23 -88 -51 -202 -51 -207 0 -3 11 -6 24 -6 19 0 26 7
31 31 6 27 10 30 38 27 24 -2 33 -9 37 -28 4 -18 14 -26 32 -28 l26 -3 -31
125 -31 126 -33 0 c-29 0 -33 -4 -42 -37z m58 -95 c1 -12 -6 -18 -19 -18 -17
0 -19 5 -14 28 11 52 16 59 24 32 5 -14 8 -33 9 -42z"/>
<path d="M2660 1635 c0 -117 1 -125 20 -125 17 0 19 8 22 78 l3 77 40 -77 c35
-69 43 -78 67 -78 l28 0 0 125 0 125 -25 0 c-24 0 -25 -2 -25 -77 l-1 -78 -40
78 c-33 65 -43 77 -64 77 l-25 0 0 -125z"/>
<path d="M2890 1635 c0 -118 1 -125 20 -125 19 0 20 7 20 125 0 118 -1 125
-20 125 -19 0 -20 -7 -20 -125z"/>
<path d="M3009 1741 c-22 -18 -24 -27 -24 -106 0 -79 2 -88 24 -106 48 -39
141 -15 141 37 0 30 -30 33 -48 4 -14 -23 -44 -26 -61 -6 -7 8 -12 40 -12 71
0 31 5 63 12 71 18 22 48 17 61 -11 16 -36 48 -33 48 4 0 57 -90 83 -141 42z"/>
<path d="M1570 1195 c0 -77 4 -125 10 -125 6 0 10 26 10 59 l0 60 48 4 47 3
-47 2 -48 2 0 50 0 50 55 0 c30 0 55 5 55 10 0 6 -28 10 -65 10 l-65 0 0 -125z"/>
<path d="M1740 1195 c0 -77 4 -125 10 -125 6 0 10 48 10 125 0 77 -4 125 -10
125 -6 0 -10 -48 -10 -125z"/>
<path d="M1800 1311 c0 -6 15 -11 33 -13 l32 -3 6 -115 5 -115 2 118 2 117 35
0 c19 0 35 5 35 10 0 6 -32 10 -75 10 -41 0 -75 -4 -75 -9z"/>
<path d="M1990 1195 c0 -84 4 -125 11 -125 7 0 10 32 7 100 -1 55 -1 100 2
100 3 0 30 -45 60 -100 30 -55 61 -100 68 -100 9 0 12 32 12 125 0 154 -18
170 -22 20 l-3 -105 -58 105 c-32 58 -63 105 -68 105 -5 0 -9 -55 -9 -125z"/>
<path d="M2210 1195 l0 -125 65 0 c37 0 65 4 65 10 0 6 -27 10 -61 10 l-60 0
3 48 3 47 50 6 50 5 -50 5 -50 4 0 45 0 45 58 3 c78 4 72 22 -8 22 l-65 0 0
-125z"/>
<path d="M2400 1300 c-21 -21 -26 -55 -11 -78 5 -8 32 -22 61 -31 60 -20 78
-46 54 -80 -28 -39 -104 -23 -104 21 0 10 -4 18 -10 18 -17 0 -11 -39 10 -60
44 -44 130 -15 130 43 0 45 -8 53 -70 74 -43 14 -56 23 -58 41 -5 32 15 52 52
52 36 0 56 -15 56 -42 0 -10 5 -18 10 -18 17 0 11 39 -10 60 -12 12 -33 20
-55 20 -22 0 -43 -8 -55 -20z"/>
<path d="M2602 1304 c-15 -10 -22 -25 -22 -48 0 -38 12 -51 55 -61 47 -11 75
-33 75 -59 0 -32 -22 -48 -62 -44 -24 2 -36 10 -46 31 -16 34 -31 35 -24 2 15
-79 152 -71 152 9 0 39 -22 61 -70 71 -45 9 -60 22 -60 49 0 31 19 46 58 46
28 0 36 -5 45 -30 6 -16 15 -30 20 -30 14 0 -2 54 -20 68 -23 17 -74 15 -101
-4z"/>
<path d="M2850 1195 c0 -77 4 -125 10 -125 6 0 10 27 10 60 l0 60 60 0 60 0 0
-60 c0 -33 4 -60 10 -60 13 0 13 237 1 245 -6 3 -11 -19 -13 -52 l-3 -58 -55
0 -55 0 -3 58 c-2 31 -7 57 -12 57 -6 0 -10 -53 -10 -125z"/>
<path d="M3062 1209 c3 -125 11 -139 78 -139 67 0 75 14 78 139 3 75 0 111 -7
111 -7 0 -11 -33 -11 -96 0 -117 -7 -134 -60 -134 -53 0 -60 17 -60 134 0 63
-4 96 -11 96 -7 0 -10 -36 -7 -111z"/>
<path d="M3270 1195 l0 -127 54 4 c30 3 62 10 70 17 21 17 20 70 0 92 -15 17
-15 19 0 34 41 41 3 95 -72 103 l-52 5 0 -128z m104 89 c36 -35 12 -74 -46
-74 l-38 0 0 45 c0 45 0 45 34 45 19 0 42 -7 50 -16z m-3 -104 c22 -12 26 -59
7 -78 -7 -7 -29 -12 -50 -12 l-38 0 0 50 c0 49 1 50 31 50 17 0 39 -5 50 -10z"/>
</g>
</svg>
