<svg id="Layer_1" data-name="Layer 1" xmlns="http://www.w3.org/2000/svg" viewBox="0 0 400 300" width="406" height="306" class="illustration styles_illustrationTablet__1DWOa"><title>_</title><polygon points="335.9 41.45 189.17 89.13 182.02 112.11 335.9 238.01 335.9 41.45" fill="#e6e6e6" opacity="0.45"></polygon><path d="M138.84,108.36s12,16.7,14.45,30.8l14.61-27.35,5.18,3.3s-13,42.85-24,44.43-19.86-28.9-19.86-28.9Z" fill="#341eb2"></path><path d="M138.84,108.36s12,16.7,14.45,30.8l14.61-27.35,5.18,3.3s-13,42.85-24,44.43-19.86-28.9-19.86-28.9Z" fill="#fff" opacity="0.46"></path><path d="M168.92,112.46s3.43-7.53,6.14-7.75-2,10.4-2,10.4Z" fill="#f4a28c"></path><ellipse cx="130.98" cy="251.44" rx="66.88" ry="7.11" fill="#e6e6e6" opacity="0.45"></ellipse><path d="M135.65,244.34s1.17,3.1,4,3.3,3.6,2.93,1.08,3.69-9.09-2.4-9.09-2.4l.15-5.16Z" fill="#341eb2"></path><path d="M99,243.77s.74,3.67,3.55,3.87,3.6,2.93,1.08,3.69-9.09-2.4-9.09-2.4l.15-5.16Z" fill="#341eb2"></path><path d="M123.55,101.62l-8.85.28s-27.31,1.91-31.45,17.95,14.83,54,14.83,54H133.9S164.89,104.34,123.55,101.62Z" fill="#341eb2"></path><path d="M123.84,82.55a30.08,30.08,0,0,1,.56,8.1,2.46,2.46,0,0,1-2.77,2.12,5.45,5.45,0,0,1-4.69-3.56l-2-4.07a4.41,4.41,0,0,1,1.37-4.89C118.86,78,123.38,79.6,123.84,82.55Z" fill="#f4a28c"></path><polygon points="115.34 85.88 114.7 101.9 123.55 101.62 120.46 90.07 115.34 85.88" fill="#f4a28c"></polygon><path d="M122.66,82.89a19.06,19.06,0,0,1-4.52.19,4.07,4.07,0,0,1,.53,4.44,3.32,3.32,0,0,1-3.83,1.79l-.66-6.25a5,5,0,0,1,2-4.71,17.88,17.88,0,0,1,2-1.26c1.71-.94,4.48,0,6-1.45a1.18,1.18,0,0,1,2,.54c.5,1.87.52,4.9-1.93,6.24A4.28,4.28,0,0,1,122.66,82.89Z" fill="#24285b"></path><path d="M98.08,173.83s4.81,35-5,69.94h7.27s13-20.6,16.3-63.12Z" fill="#24285b"></path><path d="M119.17,87.32s-.26-1.87-1.64-1.56-1,3,.9,3Z" fill="#f4a28c"></path><path d="M124.31,85.6l1.58,1.71a.79.79,0,0,1-.34,1.28l-1.82.57Z" fill="#f4a28c"></path><path d="M121.25,92.57a5.82,5.82,0,0,1-3-1.36s.47,2.9,4,5.4Z" fill="#ce8172" opacity="0.31"></path><path d="M133.9,173.83s8.75,49.89,3.24,69.94h-7s-2.42-46.26-14.32-57.06L98.08,173.83Z" fill="#24285b"></path><path d="M99.18,112.8s14.54,5.53,6.61,27.86-5.05,25,3.37,23.51c5-.88,9.51-9.36,11.09-13.56,1.38-3.69,2.18-8.77,6.47-2.1,1.62,2.52,1.53,6,1.33,8.82-.43,5.95-2.44,13.18-7.83,16.5H98.08l-11.53-12V131.71Z" opacity="0.08"></path><path d="M97.68,111.4a7.42,7.42,0,0,0-9.86.72c-4.92,5-11.77,16.34-8.84,38.9,4.41,33.93,27.83,33.44,47.12-1.1l-5.88-3.75s-17.67,24.46-25.38,12.34C87.85,147.52,111.29,122.05,97.68,111.4Z" fill="#341eb2"></path><path d="M97.68,111.4a7.42,7.42,0,0,0-9.86.72c-4.92,5-11.77,16.34-8.84,38.9,4.41,33.93,27.83,33.44,47.12-1.1l-5.88-3.75s-17.67,24.46-25.38,12.34C87.85,147.52,111.29,122.05,97.68,111.4Z" fill="#fff" opacity="0.46"></path><path d="M121.12,146.75s2.23-5.79,5-6.08-1.19,8.5-1.19,8.5Z" fill="#f4a28c"></path><rect x="245.77" y="93.47" width="72.51" height="26.72" fill="#e6e6e6"></rect><rect x="245.26" y="200.45" width="79.66" height="26.04" fill="#e6e6e6"></rect><rect x="173.86" y="86.58" width="13.11" height="25.36" transform="translate(34.1 -45.64) rotate(15.9)" fill="#ffd200"></rect><rect x="175.41" y="88.67" width="10.47" height="19.51" transform="translate(33.89 -45.73) rotate(15.9)" fill="#fff" opacity="0.46"></rect><circle cx="177.45" cy="109.32" r="0.83" fill="#fff" opacity="0.46"></circle><rect x="199.3" y="132.53" width="89.87" height="57.96" fill="#e6e6e6"></rect><rect x="206.62" y="140.62" width="38.04" height="40.85" fill="#fff" opacity="0.46"></rect><rect x="250.28" y="140.66" width="18.89" height="3.17" fill="#fff" opacity="0.46"></rect><rect x="274.03" y="140.66" width="9.19" height="3.17" fill="#fff" opacity="0.46"></rect><rect x="259.99" y="150.07" width="23.23" height="3.17" fill="#fff" opacity="0.46"></rect><rect x="250.28" y="150.07" width="6.04" height="3.17" fill="#fff" opacity="0.46"></rect><rect x="275.56" y="159.48" width="7.66" height="3.17" fill="#fff" opacity="0.46"></rect><rect x="250.28" y="159.48" width="21.79" height="3.17" fill="#fff" opacity="0.46"></rect><rect x="250.28" y="168.89" width="9.96" height="3.17" fill="#fff" opacity="0.46"></rect><rect x="262.71" y="168.89" width="20.51" height="3.17" fill="#fff" opacity="0.46"></rect><rect x="250.28" y="178.3" width="23.4" height="3.17" fill="#fff" opacity="0.46"></rect><rect x="251.65" y="204.96" width="23.23" height="16.51" fill="#fff" opacity="0.46"></rect><rect x="278.03" y="204.96" width="39.91" height="16.51" fill="#fff" opacity="0.46"></rect><circle cx="226.54" cy="77.64" r="17.87" fill="#e6e6e6"></circle><rect x="302.88" y="133.39" width="23.49" height="26.21" fill="#e6e6e6"></rect><rect x="285.99" y="97.05" width="27.32" height="20.43" fill="#fff" opacity="0.46"></rect><path d="M226.54,77.64l7.18,10.86a13,13,0,1,1,5.84-10.86Z" fill="#fff" opacity="0.46"></path><path d="M171.54,239.91s-7.9-2.16-9.62-9.51c0,0,12.24-2.47,12.59,10.16Z" fill="#341eb2" opacity="0.58"></path><path d="M172.51,239.13s-5.52-8.73-.66-16.88c0,0,9.3,5.91,5.17,16.9Z" fill="#341eb2" opacity="0.73"></path><path d="M173.93,239.13s2.92-9.21,11.73-10.95c0,0,1.65,6-5.71,11Z" fill="#341eb2"></path><polygon points="168.2 238.93 169.8 249.88 179.89 249.92 181.37 238.98 168.2 238.93" fill="#24285b"></polygon></svg>